<?xml version="1.0" standalone="no"?>
<!DOCTYPE svg PUBLIC "-//W3C//DTD SVG 1.1//EN" "http://www.w3.org/Graphics/SVG/1.1/DTD/svg11.dtd" >
<svg xmlns="http://www.w3.org/2000/svg">
<metadata>
Created by FontForge 20120731 at Thu Mar 26 17:17:23 2015
 By Ads
</metadata>
<defs>
<font id="iconfont" horiz-adv-x="1024" >
  <font-face 
    font-family="iconfont"
    font-weight="500"
    font-stretch="normal"
    units-per-em="1024"
    panose-1="2 0 6 3 0 0 0 0 0 0"
    ascent="812"
    descent="-212"
    x-height="792"
    bbox="-4 -224 1397 812"
    underline-thickness="50"
    underline-position="-100"
    unicode-range="U+0078-E719"
  />
<missing-glyph horiz-adv-x="374" 
d="M34 0v682h272v-682h-272zM68 34h204v614h-204v-614z" />
    <glyph glyph-name=".notdef" horiz-adv-x="374" 
d="M34 0v682h272v-682h-272zM68 34h204v614h-204v-614z" />
    <glyph glyph-name=".null" horiz-adv-x="0" 
 />
    <glyph glyph-name="nonmarkingreturn" horiz-adv-x="341" 
 />
    <glyph glyph-name="x" unicode="x" horiz-adv-x="1001" 
d="M281 543q-27 -1 -53 -1h-83q-18 0 -36.5 -6t-32.5 -18.5t-23 -32t-9 -45.5v-76h912v41q0 16 -0.5 30t-0.5 18q0 13 -5 29t-17 29.5t-31.5 22.5t-49.5 9h-133v-97h-438v97zM955 310v-52q0 -23 0.5 -52t0.5 -58t-10.5 -47.5t-26 -30t-33 -16t-31.5 -4.5q-14 -1 -29.5 -0.5
t-29.5 0.5h-32l-45 128h-439l-44 -128h-29h-34q-20 0 -45 1q-25 0 -41 9.5t-25.5 23t-13.5 29.5t-4 30v167h911zM163 247q-12 0 -21 -8.5t-9 -21.5t9 -21.5t21 -8.5q13 0 22 8.5t9 21.5t-9 21.5t-22 8.5zM316 123q-8 -26 -14 -48q-5 -19 -10.5 -37t-7.5 -25t-3 -15t1 -14.5
t9.5 -10.5t21.5 -4h37h67h81h80h64h36q23 0 34 12t2 38q-5 13 -9.5 30.5t-9.5 34.5q-5 19 -11 39h-368zM336 498v228q0 11 2.5 23t10 21.5t20.5 15.5t34 6h188q31 0 51.5 -14.5t20.5 -52.5v-227h-327z" />
    <glyph glyph-name="uniE600" unicode="&#xe600;" 
d="M1024 -148l-231 230q101 124 101 283q0 91 -35.5 173.5t-95 142.5t-142.5 95.5t-174 35.5t-173.5 -35.5t-142.5 -95.5t-95.5 -142.5t-35.5 -173.5t35.5 -174t95.5 -142.5t142.5 -95t173.5 -35.5q159 0 282 100l232 -230zM62 363q0 105 52 194t141 141t194 52t194.5 -52
t141 -141t51.5 -194t-51.5 -194.5t-141 -141t-194.5 -51.5t-194 51.5t-141 141t-52 194.5z" />
    <glyph glyph-name="uniE601" unicode="&#xe601;" 
d="M512 800q-104 0 -198.5 -40.5t-163.5 -109.5t-109.5 -163.5t-40.5 -199t40.5 -199t109.5 -163t163.5 -109t198.5 -40.5t199 40.5t163.5 109t109 163t40.5 199t-40.5 199t-109 163.5t-163.5 109.5t-199 40.5zM512.5 -173q-93.5 0 -179 36.5t-147 98t-98 147t-36.5 179
t36.5 179t98 147t147 98t179 36.5t179 -36.5t147 -98t98 -147t36.5 -179t-36.5 -179t-98 -147t-147 -98t-179 -36.5zM735.5 510.5q-7.5 7.5 -18 7.5t-18.5 -7q-2 -3 -4 -7l-2 1l-181 -181l-181 181l-1 -1q-2 4 -5 7q-7 7 -17.5 7t-18 -7.5t-7.5 -18t7 -17.5q3 -3 7 -5l-1 -1
l181 -181l-181 -181l1 -2q-4 -2 -7 -4q-7 -8 -7 -18.5t7.5 -18t18 -7.5t17.5 7q3 3 5 8l1 -2l181 181l181 -181l2 2q2 -5 4 -8q8 -7 18.5 -7t18 7.5t7.5 18t-7 18.5q-3 2 -8 4l2 2l-181 181l181 181l-2 1q5 2 8 5q7 7 7 17.5t-7.5 18z" />
    <glyph glyph-name="uniE602" unicode="&#xe602;" 
d="M330 293.5q0 43.5 -31 74.5t-75 31t-74.5 -31t-30.5 -74.5t30.5 -74.5t74.5 -31t75 31t31 74.5zM618 293.5q0 43.5 -31 74.5t-74.5 31t-74.5 -31t-31 -74.5t31 -74.5t74.5 -31t74.5 31t31 74.5zM906 293.5q0 43.5 -31 74.5t-74.5 31t-74.5 -31t-31 -74.5t31 -74.5
t74.5 -31t74.5 31t31 74.5z" />
    <glyph glyph-name="uniE603" unicode="&#xe603;" 
d="M-4 467v-6v-222q0 -16 11 -27t27 -11h193q16 0 27 11t11 27v222q0 16 -11 27t-27 11h-72l3 1q0 87 25 127.5t82 40.5v134q-67 -4 -116 -24.5t-77.5 -50t-46 -74t-23 -87.5t-6.5 -99zM375 467v-6v-222q0 -16 11 -27t27 -11h193q16 0 27 11t11 27v222q0 16 -11 27t-27 11
h-72l3 1q0 87 25 127.5t82 40.5v134q-66 -4 -115.5 -24.5t-78 -50t-46 -74t-23 -87.5t-6.5 -99z" />
    <glyph glyph-name="uniE604" unicode="&#xe604;" 
d="M1028 237v6v222q0 16 -11 27t-27 11h-193q-16 0 -27 -11t-11 -27v-222q0 -16 11 -27t27 -11h72l-3 -1q0 -87 -25 -127.5t-82 -40.5v-134q67 4 116 24.5t77.5 50t46 74t23 87.5t6.5 99zM649 237v6v222q0 16 -11 27t-27 11h-193q-16 0 -27 -11t-11 -27v-222q0 -16 11 -27
t27 -11h72l-3 -1q0 -87 -25 -127.5t-82 -40.5v-134q66 4 115.5 24.5t78 50t46 74t23 87.5t6.5 99z" />
    <glyph glyph-name="uniE605" unicode="&#xe605;" 
d="M0 800v-1024h1024v1024h-1024zM981 119q0 -42 -26 -87t-62 -66l-293 -169q-36 -21 -88 -21t-88 21l-293 169q-37 21 -62.5 66t-25.5 87v338q0 42 25.5 87t62.5 66l293 169q36 21 88 21t88 -21l293 -169q36 -21 62 -66t26 -87v-338z" />
    <glyph glyph-name="uniE606" unicode="&#xe606;" 
d="M883 325h-334v334h-74v-334h-334v-74h334v-334h74v334h334v74z" />
    <glyph glyph-name="uniE607" unicode="&#xe607;" 
d="M905 583q-33 6 -70.5 19t-60.5 23t-65.5 30t-56.5 26q-10 5 -40.5 22.5t-55 25t-56.5 7.5q-24 -2 -48 -13q-33 -14 -97 -47.5t-120.5 -57t-115.5 -35.5q0 -94 12 -176t31.5 -145t50.5 -119.5t62 -96.5t75 -80t80 -66.5t84 -58.5q180 98 286 290.5t105 451.5zM513 -51
q-90 45 -160.5 136t-109 209.5t-36.5 242.5q56 10 119.5 38t111 50.5t74.5 22.5q33 0 82 -23.5t109 -51.5t113 -36q2 -98 -22 -192t-66.5 -169.5t-97.5 -134t-117 -92.5v0zM469 517v-261h87v261h-87zM469 146h87v65h-87v-65zM469 146z" />
    <glyph glyph-name="uniE608" unicode="&#xe608;" 
d="M91 539q0 -30 21.5 -51t51.5 -21t51.5 21t21.5 51v0q0 30 -21.5 51.5t-51.5 21.5t-51.5 -21.5t-21.5 -51.5zM91 282q0 -31 21.5 -52t51.5 -21t51.5 21t21.5 52v0q0 30 -21.5 51t-51.5 21t-51.5 -21t-21.5 -51zM91 -5q0 -30 21.5 -51.5t51.5 -21.5t51.5 21.5t21.5 51.5v0
q0 30 -21.5 51t-51.5 21t-51.5 -21t-21.5 -51zM306 599h633v-114h-633v114zM306 351h633v-114h-633v114zM306 43h633v-113h-633v113z" />
    <glyph glyph-name="uniE609" unicode="&#xe609;" 
d="M859 18h-421l-156 -173v173h-117q-31 0 -53 21.5t-22 51.5v524q0 31 22 52.5t53 21.5h694q31 0 53 -21.5t22 -52.5v-524q0 -30 -22 -51.5t-53 -21.5zM895 616q0 15 -11 26t-27 11h-691q-16 0 -27 -11t-11 -26v-524q0 -16 11 -27t27 -11h153v-102l99 102h439q16 0 27 11
t11 27v524zM704 390h76v-75h-76v75zM474 390h76v-75h-76v75zM243 390h77v-75h-77v75z" />
    <glyph glyph-name="uniE60A" unicode="&#xe60a;" horiz-adv-x="1536" 
d="M131 446v-501q0 -33 23.5 -56t56.5 -23h1107q33 0 56 23t23 56v501h-1266zM342 130h422v-53h-422v53zM342 288h633v-53h-633v53zM131 631v-79h1266v79q0 33 -23 56t-56 23h-1107q-33 0 -56.5 -23t-23.5 -56z" />
    <glyph glyph-name="uniE60B" unicode="&#xe60b;" 
d="M512 701q-112 0 -207.5 -55t-150.5 -150.5t-55 -207.5t55 -207.5t150.5 -150.5t207.5 -55t207.5 55t150.5 150.5t55 207.5t-55 207.5t-150.5 150.5t-207.5 55zM770 389l-290 -278q-5 -6 -13 -10q-13 -9 -30 -8t-29 13l-125 125q-13 13 -13 32.5t13.5 33t32.5 13.5t33 -14
l93 -93l262 252q13 14 32.5 14t33 -13.5t13.5 -33t-13 -33.5z" />
    <glyph glyph-name="uniE60C" unicode="&#xe60c;" 
d="M512 -134q-115 0 -212 56.5t-153.5 153.5t-56.5 212t56.5 212t153.5 153.5t212 56.5t212 -56.5t153.5 -153.5t56.5 -212t-56.5 -212t-153.5 -153.5t-212 -56.5zM708 410q16 15 16 37t-15.5 37.5t-37.5 15.5t-37 -16l-122 -121l-122 121q-15 16 -37 16t-37.5 -15.5
t-15.5 -37.5t16 -37l121 -122l-121 -122q-16 -15 -16 -37t15.5 -37.5t37.5 -15.5t37 16l122 121l122 -121q15 -16 37 -16t37.5 15.5t15.5 37.5t-16 37l-121 122z" />
    <glyph glyph-name="uniE60D" unicode="&#xe60d;" 
d="M511.5 707q-113.5 0 -210 -56t-152.5 -152.5t-56 -210.5t56 -210.5t152.5 -152.5t210 -56t210 56t152.5 152.5t56 210.5t-56 210.5t-152.5 152.5t-210 56zM758 222h-494v127h494v-127z" />
    <glyph glyph-name="uniE60E" unicode="&#xe60e;" 
d="M947 766h-843q-7 0 -12 -4.5t-5 -11.5v-553q0 -7 4.5 -15.5t8.5 -13.5l4 -5q389 -363 397 -371q6 -6 12.5 -5.5t10.5 5.5q3 2 108 95t208 185l104 91q9 19 10 34v553v5v5q0 1 -0.5 3t-2.5 2.5t-4 0.5zM795 473l-283 -440l-267 441l-69 1v85h208l169 -299l195 298h110v-86
h-63z" />
    <glyph glyph-name="uniE60F" unicode="&#xe60f;" 
d="M512 -224q-139 0 -257 68.5t-186.5 186.5t-68.5 257t68.5 257t186.5 186.5t257 68.5t257 -68.5t186.5 -186.5t68.5 -257t-68.5 -257t-186.5 -186.5t-257 -68.5zM512 565q-115 0 -196 -71t-81 -171q0 -57 27.5 -106.5t76.5 -83.5v-122l121 73q26 -4 52 -4q103 0 180 58
t94 145q3 20 3 40q0 100 -81 171t-196 71zM512 115q-51 0 -60 2l-83 -50l2 82q-49 29 -77.5 74.5t-28.5 98.5q0 87 72.5 149t174.5 62t174.5 -62t72.5 -149t-73 -147t-174 -60zM425 236h174q7 0 12 5t5 12.5t-5 12.5t-12 5h-174q-7 0 -12 -5t-5 -12.5t5 -12.5t12 -5z
M633 375h-242q-8 0 -13 -5t-5 -12.5t5 -12.5t13 -5h242q8 0 13 5t5 12.5t-5 12.5t-13 5z" />
    <glyph glyph-name="uniE610" unicode="&#xe610;" 
d="M245 474q0 107 77.5 183t187 76t186.5 -76t77 -183t-77 -183t-186.5 -76t-187 76t-77.5 183zM198 474q0 -91 50 -165.5t131 -111.5q-135 -38 -227 -145.5t-107 -246.5h47q12 101 70 184.5t149.5 132t197.5 48.5t198 -48.5t150 -132t69 -184.5h47q-14 139 -106 246.5
t-228 145.5q81 37 131 111.5t50 165.5q0 126 -91 215t-220 89t-220 -89t-91 -215zM198 474z" />
    <glyph glyph-name="uniE611" unicode="&#xe611;" 
d="M512 812q-139 0 -257 -68.5t-186.5 -186.5t-68.5 -257t68.5 -257t186.5 -186.5t257 -68.5t257 68.5t186.5 186.5t68.5 257t-68.5 257t-186.5 186.5t-257 68.5zM271 378q-5 10 3 25l1 1l2 2q151 71 210 165q14 15 28 15t27 -13q103 -119 220 -166l2 -1l2 -2
q10 -16 4.5 -26t-23.5 -10h-2l-2 1q-126 49 -224 163q-2 2 -3 2l-1 -1q-78 -103 -216 -164h-5q-17 0 -23 9zM771 104q-6 -8 -18 -8h-8q-87 56 -133 160q-31 -94 -128 -158q-7 -2 -11 -2q-12 0 -17 8q-6 9 2 26l1 1l1 2q25 18 44 37q-4 1 -10 3q-35 38 -70 71
q-24 -85 -103 -146h-1l-3 -1q-5 -1 -8 -1q-13 0 -18 8q-7 9 -1 25v1l2 3q105 81 97 216v56l1 1q9 16 20.5 16t20.5 -15l1 -1v-3v-105q58 -54 94 -94l1 -1l1 -2q0 -3 1 -4q55 69 52 157v52l1 1q13 13 23 13q12 0 18 -14l1 -1v-2v-49q47 -154 144 -220l1 -1l2 -3q6 -17 0 -26z
" />
    <glyph glyph-name="uniE612" unicode="&#xe612;" 
d="M225 345v-76v-42h61v162h-61v-44zM320 387v-160l2 -1l218 -105v372l-218 -105zM512 812q-139 0 -257 -68.5t-186.5 -186.5t-68.5 -257t68.5 -257t186.5 -186.5t257 -68.5t257 68.5t186.5 186.5t68.5 257t-68.5 257t-186.5 186.5t-257 68.5zM578 118q0 -15 -11 -26
t-27 -11l-230 113h-80q-16 0 -27 11t-11 27v37v76v38q0 16 9.5 26.5t25.5 10.5h83l230 114q16 0 27 -11.5t11 -26.5v-378zM826 237q9 -9 0 -18l-8 -8q-8 -9 -17 0l-68 67l-67 -67q-9 -9 -18 0l-8 8q-9 9 0 18l67 67l-67 67q-9 9 0 18l8 8q9 9 18 0l67 -67l68 67q8 9 17 0
l8 -8q9 -9 0 -18l-67 -67z" />
    <glyph glyph-name="uniE613" unicode="&#xe613;" 
d="M677 396q-4 4 -17 4h-136q-19 0 -19 -14v-20q0 -15 12 -15h6h133h8q10 0 13 3q2 4 1 11v21q1 7 -1 10zM641 134q3 3 1 11v49q2 9 -2 12q-5 6 -20 6h-56q-19 0 -19 -18v-48q0 -15 12 -15h6h61h7q7 0 10 3zM512 800q-139 0 -257 -68.5t-186.5 -186.5t-68.5 -257t68.5 -257
t186.5 -186.5t257 -68.5t257 68.5t186.5 186.5t68.5 257t-68.5 257t-186.5 186.5t-257 68.5zM440 251l-1 -1l-1 -1q-23 -12 -57 -27v-132q1 -18 -8 -28q-10 -11 -33 -11q-21 0 -54 10h-1l-1 1q-10 10 -8 18q2 10 18 15l2 1l2 -1q26 -11 39 -11q6 0 8 2t1 7v117
q-28 -10 -57 -18h-2l-2 1q-11 5 -12 13t7 16h1l1 1q34 11 64 23v134h-60l-2 1q-10 8 -10 16.5t10 16.5l2 1h60v101l1 1q8 10 16.5 10t16.5 -10l1 -1v-101h52l2 -1q10 -7 10 -16t-10 -17l-2 -1h-52v-121q21 10 44 20h1h2q12 0 16 -7q4 -8 -4 -21zM553 96q-43 0 -43 46v56
q0 49 54 49h60q30 0 43 -14q12 -13 10 -36v-59q2 -20 -8 -31t-33 -11h-9h-67h-7zM733 55q-14 -16 -49 -19q-26 0 -63 17l-1 1l-1 1q-8 16 -3 24t20 8h1h1q31 -16 46 -16q16 2 21 9q2 3 1 9v153q2 11 -3 16q-5 6 -19 6h-184q-19 0 -19 -22v-186l-1 -2q-8 -10 -16.5 -10
t-16.5 10l-1 2v190q0 53 50 53h192q29 0 42 -15q13 -13 11 -39v-159q2 -19 -8 -31zM713 358q2 -19 -8 -30q-11 -12 -36 -12h-10h-139h-7q-43 0 -43 46v24q0 49 50 49h144q29 0 41 -13q10 -11 8 -29v-35zM738 453l-1 -1h-291l-2 1q-10 8 -10 16.5t10 16.5l2 1h126
q-4 14 -13 32l-1 2v2q4 17 18 17q8 0 18 -5l2 -1l16 -47h125l1 -1q13 -7 13 -16t-13 -17z" />
    <glyph glyph-name="uniE614" unicode="&#xe614;" 
d="M512 -212q-139 0 -257 68.5t-186.5 186.5t-68.5 257t68.5 257t186.5 186.5t257 68.5t257 -68.5t186.5 -186.5t68.5 -257t-68.5 -257t-186.5 -186.5t-257 -68.5zM800 449q0 27 -18.5 45.5t-45.5 18.5h-427q-26 0 -45 -18.5t-19 -45.5v-277q0 -27 19 -45.5t45 -18.5h427
q27 0 45.5 18.5t18.5 45.5v277zM736 151h-427q-9 0 -15 6t-6 15v171h469v-171q0 -9 -6 -15t-15 -6zM715 225q0 5 -3.5 8t-7.5 3h-85q-5 0 -8 -3t-3 -8v-21q0 -4 3 -7.5t8 -3.5h85q4 0 7.5 3.5t3.5 7.5v21zM288 449q0 9 6.5 15.5t14.5 6.5h427q9 0 15 -6.5t6 -15.5v-64h-469
v64z" />
    <glyph glyph-name="uniE615" unicode="&#xe615;" 
d="M512 -212q-139 0 -257 68.5t-186.5 186.5t-68.5 257t68.5 257t186.5 186.5t257 68.5t257 -68.5t186.5 -186.5t68.5 -257t-68.5 -257t-186.5 -186.5t-257 -68.5zM503.5 583q-114.5 0 -195.5 -81t-81 -195.5t81 -195.5t195.5 -81t196 81t81.5 195.5t-81.5 195.5t-196 81z
M504 72q-98 0 -167 69t-69 167t69 167t167 69t167 -69t69 -167t-69 -167t-167 -69zM503 159q15 0 25.5 10.5t10.5 25.5t-10.5 25.5t-25.5 10.5t-25.5 -10.5t-10.5 -25.5t10.5 -25.5t25.5 -10.5zM576 443.5q-27 23.5 -72 23.5q-43 0 -69.5 -23.5t-28.5 -56.5q1 -18 18 -21
q11 -2 18.5 1.5t9.5 8.5l2 5q5 23 18.5 34.5t33.5 11.5q21 0 33.5 -11t12.5 -26q0 -11 -7 -20q-5 -6 -28 -25q-23 -18 -30 -33q-8 -15 -8 -39v-12q3 -9 24 -9q10 0 16 2t7 5l1 2q-1 21 3 30q4 8 21 22q32 27 42 42.5t10 32.5q0 32 -27 55.5z" />
    <glyph glyph-name="uniE616" unicode="&#xe616;" 
d="M507 720q-117 0 -216.5 -57.5t-157 -157t-57.5 -216.5t57.5 -216t157 -157t216.5 -58t216.5 58t157 157t57.5 216t-57.5 216.5t-157 157t-216.5 57.5zM507 -94q-104 0 -192 51.5t-139.5 139.5t-51.5 192t51.5 192.5t139.5 139.5t192 51t192.5 -51t139.5 -139.5t51 -192.5
t-51 -192t-139.5 -139.5t-192.5 -51.5zM252 305h511v-32h-511v32z" />
    <glyph glyph-name="uniE617" unicode="&#xe617;" 
d="M792 178q-40 0 -74.5 -17.5t-58.5 -47.5l-265 132q6 22 6 44.5t-5 43.5l264 132q24 -30 59 -47.5t74 -17.5q70 0 119.5 49.5t49.5 119.5t-49.5 119.5t-119.5 49.5t-119.5 -49.5t-49.5 -119.5q0 -22 6 -44l-264 -132q-24 31 -59 48.5t-75 17.5q-70 0 -119.5 -50
t-49.5 -120t49.5 -119.5t119.5 -49.5q40 0 75 17.5t58 47.5l265 -132q-6 -22 -6 -44q0 -70 49.5 -119.5t119.5 -49.5t119.5 49.5t49.5 119.5t-49.5 119.5t-119.5 49.5zM711.5 650.5q33.5 33.5 81 33.5t81 -33.5t33.5 -81t-33.5 -81t-81 -33.5t-81 33.5t-33.5 81t33.5 81z
M231.5 175q-47.5 0 -81.5 33.5t-34 81t34 81t81.5 33.5t81 -33.5t33.5 -81t-33.5 -81t-81 -33.5zM873.5 -72q-33.5 -34 -81 -34t-81 34t-33.5 81.5t33.5 81t81 33.5t81 -33.5t33.5 -81t-33.5 -81.5z" />
    <glyph glyph-name="uniE618" unicode="&#xe618;" 
d="M834 -5h-75l1 -122l-230 122h-340q-38 0 -65.5 25t-27.5 60v538q0 35 27.5 60t65.5 25h644q38 0 65.5 -25t27.5 -60v-538q0 -35 -27.5 -60t-65.5 -25zM802 495q0 18 -12 30t-29 12h-498q-17 0 -29 -12t-12 -30v-41q0 -17 12 -29.5t29 -12.5h498q17 0 29 12.5t12 29.5v41z
M802 246q0 18 -12 30t-29 12h-498q-17 0 -29 -12t-12 -30v-41q0 -17 12 -29.5t29 -12.5h498q17 0 29 12.5t12 29.5v41z" />
    <glyph glyph-name="uniE619" unicode="&#xe619;" 
d="M512 735q-91 0 -174 -35t-143 -95t-95 -143t-35 -174t35 -173.5t95 -142.5t143 -95.5t174 -35.5t173.5 35.5t142.5 95.5t95.5 142.5t35.5 173.5t-35.5 174t-95.5 143t-142.5 95t-173.5 35zM691 334v-65h-110v-89h110v-61h-111v-113h-130v114h-116v58h115v89h-116v64h118
l-142 237l88 -6q84 -134 119 -189l115 189l84 6l-136 -234h112z" />
    <glyph glyph-name="uniE61A" unicode="&#xe61a;" 
d="M506 719q-117 0 -216 -58t-157 -157t-58 -216t58 -216.5t157 -157t216 -57.5t216.5 57.5t157 157t57.5 216.5t-57.5 216t-157 157t-216.5 58zM506 -97q-104 0 -192.5 51.5t-140 140t-51.5 193t51.5 193t140 140t192.5 51.5t192.5 -51.5t140 -140t51.5 -193t-51.5 -193
t-140 -140t-192.5 -51.5zM530 499h-48v-192h-192v-48h192v-193h48v193h192v48h-192v192z" />
    <glyph glyph-name="uniE61B" unicode="&#xe61b;" 
d="M913 434h-216q14 32 22.5 94.5t1.5 121.5q-7 51 -35 88t-72 52q-32 11 -63.5 6t-50.5 -23q-13 -14 -24.5 -40t-17.5 -46.5t-15 -59.5q-20 -80 -32 -101q-23 -39 -65.5 -65.5t-59.5 -26.5h-102q-15 0 -25.5 -11t-10.5 -26v-510q0 -15 10.5 -25.5t25.5 -10.5h99
q10 0 52 -18t103.5 -36.5t119.5 -18.5h246q37 0 77.5 15t58 44t50 236t32.5 250q0 44 -35 77.5t-74 33.5zM39 434q-15 0 -26 -11t-11 -26v-510q0 -15 11 -25.5t26 -10.5t25.5 10.5t10.5 25.5v510q0 15 -10.5 26t-25.5 11z" />
    <glyph glyph-name="uniE61C" unicode="&#xe61c;" 
d="M39 -149q-15 0 -26 10.5t-11 26.5v509q0 15 11 26t26 11t25.5 -11t10.5 -26v-509q0 -16 -10.5 -26.5t-25.5 -10.5zM913 434h-216q14 32 22.5 94.5t1.5 121.5q-7 51 -35 88t-72 52q-33 11 -64 6t-50 -23q-13 -14 -24.5 -40t-17.5 -46.5t-15 -59.5q-20 -80 -32 -101
t-31.5 -38.5t-39.5 -28.5t-32 -16.5t-21 -8.5h-103q-15 0 -25.5 -11t-10.5 -26v-509q0 -16 10.5 -26.5t25.5 -10.5h99q25 -14 56 -27.5t95.5 -29.5t123.5 -16h246q37 0 77.5 15t58 44t50 236t32.5 250q0 44 -35 77.5t-74 33.5zM877 -125q-4 -8 -27.5 -16t-45.5 -8h-246
q-27 0 -54.5 4t-51 10.5t-45.5 14.5t-39 15.5t-29.5 14t-19.5 10.5l-7 4h-18h-73v437h73q1 0 8 2h2h2l1 1h1q14 5 30 12t42 22t51.5 39t42.5 52q17 31 39 120q24 97 39 112q4 4 14.5 4t27.5 -5q47 -19 54 -79q7 -52 -3.5 -112t-18.5 -82t-14 -35q-8 -18 2 -35q11 -16 31 -16
h268q9 0 22.5 -12t13.5 -25q0 -39 -30.5 -231.5t-41.5 -217.5z" />
    <glyph glyph-name="uniE61D" unicode="&#xe61d;" 
d="M794 77l-9 71l209 219q-2 23 -18 39l-294 56l-152 271q-16 4 -32 0l-152 -271l-295 -56q-16 -16 -18 -38l209 -220l-37 -295q13 -19 36 -25l273 126l271 -126q25 8 37 29l-27 216q0 2 -1 4zM514 48l-219 -101l33 235l-155 161l228 49l113 196v3l116 -198l232 -47
l-159 -165l21 -223z" />
    <glyph glyph-name="uniE61E" unicode="&#xe61e;" 
d="M995 398l-326 62l-160 286l-160 -286l-327 -62l227 -239l-41 -324l301 139l300 -139l-41 324z" />
    <glyph glyph-name="uniE61F" unicode="&#xe61f;" horiz-adv-x="1000" 
d="M544 796q33 6 54 -19q19 -21 19 -55v-408v-408q0 -40 -7 -58q-9 -27 -33 -38q-25 -13 -54 1q-9 5 -17.5 11t-21.5 19.5t-14 15.5q-26 25 -106 105l-124 124q-1 0 -4.5 4t-6 5.5t-6.5 0.5h-69h-70q-23 0 -37 7q-33 14 -40 51v293q5 26 24 42t47 16h145q4 -1 6 0.5t5 4.5
l5 5q48 48 138 137.5t114 114.5q27 26 53 29zM546 751q-9 -3 -24 -17q-70 -70 -272 -271q-11 -11 -12 -14q-5 -8 -5 -23v-124v-125q0 -22 10 -31q51 -52 146.5 -146.5t133.5 -133.5q15 -15 27 -17q10 -2 15 8q7 13 7 47v815q0 22 -9 30q-5 5 -17 2zM65 455q-13 -7 -12 -22
v-265q0 -12 8 -19q6 -6 19 -6h56h57q-5 15 -5 32v251q0 17 5 32h-55h-54q-15 -1 -19 -3zM786 588q11 5 23 -1q92 -51 137 -146q40 -82 30 -173q-8 -81 -53 -149q-44 -65 -112 -104q-12 -6 -21 -3q-8 3 -12.5 11t-2.5 16q2 9 14 16q80 45 118 128q42 89 18 186
q-14 55 -49.5 102t-85.5 74q-14 8 -16 18q-2 7 1.5 14.5t10.5 10.5zM693 448q8 2 22 -2q61 -20 89 -79q26 -52 10 -109q-10 -35 -36.5 -63t-61.5 -39q-17 -7 -27 -1q-7 4 -10 13t2 17q4 8 24 15q29 11 48 36t21 56q3 31 -13 60t-44 44q-3 1 -17 6.5t-19 12.5q-5 8 -1.5 19
t13.5 14z" />
    <glyph glyph-name="uniE620" unicode="&#xe620;" 
d="M880 495l-373 209q-21 12 -45 5.5t-36 -26.5l-306 -515q-13 -20 -6.5 -43t27.5 -35l373 -209q22 -12 45.5 -5.5t35.5 26.5l307 515q12 20 5.5 43t-27.5 35zM347 17q-20 11 -25.5 31.5t5.5 39t32.5 24t40.5 -5t25 -31.5t-5.5 -39.5t-32.5 -24t-40 5.5zM598 52l-346 193
l230 386l346 -194zM431 797q-4 0 -9 -0.5t-17 -4.5t-24 -12t-28 -25.5t-30 -42.5l-91 -152q-5 -7 -2.5 -15.5t10.5 -13t16.5 -2t12.5 9.5l91 152q16 27 33.5 43t24 18.5t10.5 2.5q9 0 15.5 5.5t6.5 13.5q1 9 -4.5 15.5t-14.5 7.5zM256 703.5q-8 4.5 -16.5 2t-13.5 -9.5
l-102 -173q-5 -7 -2.5 -15.5t10 -12.5t16.5 -2t13 10l103 172q4 7 2 15.5t-10 13zM768 46q-8 4 -16.5 2t-13.5 -10l-90 -152q-17 -27 -34 -43t-23.5 -18.5t-11.5 -2.5q-8 0 -14.5 -5.5t-7.5 -13.5q-1 -13 11 -20q4 -2 9 -3q3 0 8 0.5t17 4.5t24 12t28 26t31 42l91 152
q4 8 1.5 16t-9.5 13zM876 82.5q-8 4.5 -16.5 2t-13.5 -9.5l-102 -173q-5 -7 -2.5 -15.5t10 -13t16.5 -2t13 9.5l103 173q4 7 2 15.5t-10 13z" />
    <glyph glyph-name="uniE621" unicode="&#xe621;" 
d="M786 580q-16 24 -84 97.5t-93 94.5q-32 27 -107 28t-108 -32q-24 -29 -55 -70t-50 -68l-19 -27l349 2q-414 -521 -459 -561l59 -259l552 702q2 2 4.5 6t8 15.5t8.5 22t2 24.5t-8 25zM412 596q-19 26 -30 60t-13 55l-2 21q-104 -129 -128 -175q-10 -22 -4 -42.5t15 -35
t10 -14.5l557 -689l47 271l-4 6q-409 488 -448 543z" />
    <glyph glyph-name="uniE623" unicode="&#xe623;" 
d="M41 632h942v-75h-942v75zM41 326h942v-76h-942v76zM41 19h942v-75h-942v75z" />
    <glyph glyph-name="uniE700" unicode="&#xe700;" 
d="M704 -156l99 93zM803 -63l-375 351l378 350l-100 94l-470 -443l468 -445z" />
    <glyph glyph-name="uniE701" unicode="&#xe701;" 
d="M512 683l-469 -469l31 -31l97 96v-438h682v439l97 -97l31 31zM597 -116h-170v299h170v-299zM811 -116h-171v341h-256v-341h-171v438l299 299l299 -299v-438z" />
    <glyph glyph-name="uniE703" unicode="&#xe703;" 
d="M512.5 688q-114.5 0 -212 -56.5t-154 -153.5t-56.5 -211.5t56.5 -212t154 -153.5t212 -56t211.5 56t153.5 153.5t56.5 212t-56.5 211.5t-153.5 153.5t-211.5 56.5zM512 -113q-103 0 -190 51t-138 138.5t-51 190t51 190t138 138.5t190 51t190.5 -51t138.5 -138.5t51 -190
t-51 -190t-138.5 -138.5t-190.5 -51zM702 294h-379q-9 0 -15 -6t-6 -14.5t6 -15t15 -6.5h379q9 0 15 6.5t6 15t-6 14.5t-15 6zM702 154h-380q-8 0 -14.5 -6t-6.5 -15t6.5 -15t14.5 -6h380q9 0 15 6t6 15t-6 15t-15 6zM702 435h-379q-9 0 -15 -6t-6 -15t6 -15t15 -6h379
q9 0 15 6t6 15t-6 15t-15 6z" />
    <glyph glyph-name="uniE704" unicode="&#xe704;" 
d="M961 293q0 91 -35.5 174.5t-96 143.5t-143.5 96t-174.5 36t-174.5 -36t-143.5 -96t-96 -143.5t-35.5 -174.5q0 -95 37.5 -179.5t104.5 -147.5h-1l12 -10q48 -43 106 -70q1 0 2.5 -1t2.5 -1q1 -1 3 -2h1q74 -33 156 -38h5h1h4h2h3h3h1h1h6h5h3h2h3h2h4h1h5q92 6 175 47
q52 26 96 65l12 10h-1q67 63 104.5 147.5t37.5 179.5zM93 293q0 114 56 210.5t152.5 152.5t210 56t210 -56t152.5 -152.5t56 -210.5q0 -88 -34.5 -167t-96.5 -137q-46 44 -129 67q-29 13 -36 19l-6 6q-16 15 -18 29v64q22 26 39 82q11 5 20.5 17.5t13.5 27.5q7 34 -6 50
q18 67 15 121.5t-25 84.5q-24 32 -67 32q-2 2 -6 8q-10 13 -24 19t-49 6h-5q-91 0 -136 -54q-58 -69 -33 -218q-11 -17 -5 -48q6 -32 29 -44q20 -56 43 -83q2 -59 0 -68q-3 -13 -15 -26q-11 -11 -42 -24q-87 -23 -133 -68q-62 58 -96.5 137t-34.5 167zM712 -75h-1l-4 -2
q-3 -2 -5 -3h-2v-1q-80 -40 -170 -44h-1h-8h-1q-5 -1 -8.5 -1t-8.5 1h-1h-8h-1q-85 4 -162 41h-1h-1q-2 1 -5 3q-41 20 -77 50q41 37 119 59q39 16 54 31q20 20 24 42q3 14 0 81v6l-4 4q-22 23 -42 83l-1 11l-12 -1q-2 1 -6.5 7.5t-6.5 15.5q-3 13 0 22l10 2l-3 15
q-26 141 24 201q36 43 113 43h5q18 0 28.5 -2t13.5 -4t6 -7q9 -11 19 -17l4 -3l8 1q27 0 42 -20q19 -25 19.5 -76t-17.5 -114l-2 -15l12 -3q2 -9 -1 -24q-3 -12 -11 -19l-13 9l-6 -21q-19 -64 -39 -85l-4 -4v-79q3 -27 26 -49l7 -7q12 -9 47 -25q76 -21 116 -58
q-30 -25 -64 -44z" />
    <glyph glyph-name="uniE705" unicode="&#xe705;" 
d="M320 732l-99 -93zM221 639l375 -351l-378 -350l100 -94l470 443l-468 445z" />
    <glyph glyph-name="uniE706" unicode="&#xe706;" horiz-adv-x="1000" 
d="M861 138q-13 7 -11.5 23t20.5 35q18 20 13 40.5t-25 30t-21.5 21t21.5 21.5q22 9 22 42t-24 60q-12 15 -68.5 19t-106.5 1l-50 -3q2 2 2 108q0 77 -21 105t-63 27q-13 0 -21 -4t-13 -9.5t-8 -19.5t-5.5 -28.5t-8 -42.5t-12.5 -56q-8 -35 -27.5 -70t-40.5 -60t-41.5 -44.5
t-33 -29t-13.5 -9.5v-290q8 -10 20.5 -18.5t23 -13t23.5 -9t15 -5.5q7 -3 49 -8t79 -8.5t39 -3.5q3 1 8.5 1t22.5 2t33.5 3.5t39 4.5t42 6t40 7t35.5 8.5t25 9.5t12 11q6 18 2 29t-2 20t18 15q20 8 25.5 26.5t0 34.5t-14.5 21zM117 300v-285q0 -21 15 -36t36 -15h103v387
h-103q-21 0 -36 -15t-15 -36z" />
    <glyph glyph-name="uniE707" unicode="&#xe707;" 
d="M621 -4q10 0 17.5 11.5t7.5 26.5v444q0 16 -7.5 27t-17.5 11h-23q-11 0 -18 -11t-7 -27v-444q0 -15 7 -26.5t18 -11.5h23zM426 -4q10 0 17 11.5t7 26.5v444q0 16 -7 27t-17 11h-24q-10 0 -17.5 -11t-7.5 -27v-444q0 -15 7.5 -26.5t17.5 -11.5h24zM841 550h-43
q-14 0 -24 -9.5t-10 -23.5v-564h-504v567q0 12 -9 21t-22 9h-49q-13 0 -22 -9t-9 -21v-604v-3v-32q0 -17 11.5 -28.5t27.5 -11.5h647q16 0 28 11.5t12 28.5v28v7v601q0 14 -10 23.5t-24 9.5zM891 681h-296v22q0 14 -9.5 23.5t-22.5 9.5h-102q-14 0 -23.5 -9.5t-9.5 -23.5
v-22h-295q-17 0 -29 -12t-12 -28v-31q0 -17 12 -29t29 -12h758q16 0 28 12t12 29v31q0 16 -12 28t-28 12z" />
    <glyph glyph-name="uniE708" unicode="&#xe708;" 
d="M782 225q-16 0 -27.5 11.5t-11.5 28t11.5 28t27.5 11.5t27.5 -11.5t11.5 -28t-11.5 -28t-27.5 -11.5zM582 225q-16 0 -27.5 11.5t-11.5 28t11.5 28t27.5 11.5t27.5 -11.5t11.5 -28t-11.5 -28t-27.5 -11.5zM960 169q0 95 -74 164.5t-182 75.5q-12 1 -20 1
q-115 0 -196 -70.5t-81 -170.5q0 -29 8 -58q23 -79 97.5 -131t171.5 -52q65 0 123 25l62 -42l1 -1q2 -1 4.5 -1.5t4.5 0t3.5 4t1.5 9.5l-18 66q44 34 69 81t25 100zM260 440q-16 0 -27.5 11.5t-11.5 27.5t11.5 27.5t27.5 11.5t27.5 -11.5t11.5 -27.5t-11.5 -27.5
t-27.5 -11.5zM504.5 518q16.5 0 27.5 -11.5t11 -27.5t-11 -27.5t-27.5 -11.5t-27.5 11.5t-11 27.5t11 27.5t27.5 11.5zM684 430q6 0 17 -1q-17 102 -107 170t-209 68q-87 0 -161 -37t-117 -101.5t-43 -139.5q0 -64 30.5 -119.5t84.5 -94.5l-24 -89q0 -1 -0.5 -3t-0.5 -7
t2.5 -6.5t7 -3t14.5 2.5l88 61q57 -20 119 -20h5h5q-8 29 -8 59q0 108 87 184.5t210 76.5z" />
    <glyph glyph-name="uniE709" unicode="&#xe709;" 
d="M743 298q-17 4 -21.5 10.5t-1.5 11.5l4 6q1 2 3.5 6.5t6 17t4.5 25t-4 28t-18 27.5q-31 26 -72 22.5t-77.5 -15.5t-36.5 -14q-10 -3 -17.5 -4.5t-11.5 0t-6 3.5t-1.5 8t1 10t3 13.5t3.5 15.5q0 16 -2.5 30t-12 29.5t-25 23.5t-44 7.5t-66.5 -13.5q-37 -13 -76.5 -39
t-69.5 -54t-53.5 -54t-36.5 -43l-13 -17q-22 -30 -37.5 -60.5t-21.5 -52.5t-8.5 -40t-2.5 -27t1 -9q6 -53 31.5 -94.5t61 -67.5t84 -44t93 -26.5t94.5 -12.5q81 -6 168 13.5t162 66.5t106 113q19 39 19 73t-12 55.5t-31 38t-36 24t-30 9.5zM408 -43q-118 -6 -201 46t-83 131
q0 78 82.5 134.5t201.5 61.5q120 6 202.5 -39.5t82.5 -122.5q0 -80 -84 -143t-201 -68zM377 261q-32 -4 -57.5 -15t-39.5 -26t-24 -32t-13.5 -34t-5 -30t-1.5 -22l1 -8v-5q0 -3 2.5 -12.5t6 -18t12.5 -18.5t22 -17q71 -35 134 -21t101 64q15 18 20 45.5t-2.5 55.5
t-24.5 51.5t-51.5 35.5t-79.5 7zM337 52.5q-22 -2.5 -37.5 9t-15.5 29.5q0 19 14.5 35t35.5 19q25 2 40.5 -10t15.5 -31t-15.5 -34t-37.5 -17.5zM430.5 132.5q-7.5 -5.5 -15.5 -5t-12 7.5q-5 6 -3 15.5t9 14.5q9 6 17 5t12 -7.5t2 -15.5t-9.5 -14.5zM820 363q9 0 16.5 6
t8.5 15v3q4 36 -1.5 63t-18 42t-28 25t-32 12.5t-30.5 3.5t-23 -1l-9 -1q-10 0 -18 -7.5t-8 -18.5t8 -18.5t18 -7.5q86 19 93 -55q1 -19 -2 -36q0 -10 7.5 -17.5t18.5 -7.5zM801 666q-55 13 -129 -1q-1 0 -2 -1t-2 -1h-1q-12 -4 -19.5 -14t-7.5 -23q0 -15 11 -26.5t26 -11.5
q21 3 34 8q6 1 19.5 2.5t36 -4.5t45 -14.5t46.5 -28.5t40 -47q29 -65 12 -126q-8 -18 -8 -36q0 -15 11 -24.5t27 -9.5t24.5 6t11.5 26q20 61 15.5 110.5t-21.5 86.5t-46.5 63.5t-60 42.5t-62.5 23z" />
    <glyph glyph-name="uniE710" unicode="&#xe710;" 
d="M470 414l-383 -381q-12 -12 -29.5 -12t-29.5 12.5t-12 29.5t12 29l452 449q1 0 2 1v1q1 1 2.5 1.5t2.5 1.5q6 5 14 7q3 1 6 1q21 3 35 -11v-1l2 -2l452 -448q12 -12 12 -29t-12 -29.5t-29.5 -12.5t-29.5 12l-383 381q-22 23 -44 23q-9 0 -19 -5.5t-15 -11.5z" />
    <glyph glyph-name="uniE711" unicode="&#xe711;" 
d="M954 420q0 6 -0.5 7t-4.5 1h-5h-266l-40 71l-109 211h-19l-99 -211l-40 -71h-309v-5l56 -40l156 -140l-35 -320q0 -7 3 -8.5t18 -1.5l258 160l258 -160q7 0 10 1.5t10 8.5l-49 320l148 129zM302 114l287 236l-267 46h405l-247 -226l257 -56h-435z" />
    <glyph glyph-name="uniE712" unicode="&#xe712;" 
d="M896 576l-511 -511q-14 -14 -32 -15.5t-31 10.5q-13 13 -13 31.5t13 31.5l511 511q13 13 31.5 13t31.5 -13t13 -29t-13 -29zM228 617q-19 0 -32 -13t-13 -32v-604q0 -19 13 -32t32 -13h503q18 0 28.5 13t10.5 32v277v5q0 3 3 10.5t8 13.5t15 10.5t24 4.5q18 -1 31 -12.5
t13 -29.5q0 -28 -25 -40v-249q0 -49 -21 -79t-65 -30h-532q-47 0 -79 31.5t-32 77.5v621q0 46 32.5 78.5t78.5 32.5h377q44 0 44 -29q0 -24 -17 -44h-397z" />
    <glyph glyph-name="uniE713" unicode="&#xe713;" 
d="M943 245q-2 -2 -6 -8q-19 -21 -30.5 -34t-37.5 -39t-49 -43t-59.5 -38.5t-72 -34t-83.5 -21.5t-98 -9q-44 0 -86.5 9t-75.5 21.5t-69.5 35.5t-59.5 40t-54 46.5t-45 44t-40 43.5q-15 15 -13.5 46t18.5 49l14 14q23 25 36.5 39t42.5 40.5t51.5 43t57.5 38t67 33t73 20.5
t83 9q43 0 86.5 -10t78 -24.5t72 -37.5t62 -41.5t54 -46t43 -41.5t33.5 -36l10 -10q14 -15 14.5 -45t-17.5 -53zM512.5 506q-84.5 0 -144.5 -59.5t-60 -144.5t60 -144.5t144.5 -59.5t144.5 59.5t60 144.5t-60 144.5t-144.5 59.5zM512.5 180q-50.5 0 -86.5 36t-36 86.5t36 86
t86.5 35.5t86.5 -35.5t36 -86t-36 -86.5t-86.5 -36z" />
    <glyph glyph-name="uniE714" unicode="&#xe714;" 
d="M470 162l-383 381q-12 12 -29.5 12t-29.5 -12.5t-12 -29.5t12 -29l452 -449q1 0 2 -1v-1q1 -1 2.5 -1.5t2.5 -1.5q6 -5 14 -7q3 -1 6 -1q21 -3 35 11v1l2 2l452 448q12 12 12 29t-12 29.5t-29.5 12.5t-29.5 -12l-383 -381q-22 -23 -44 -23q-9 0 -19 5.5t-15 11.5z" />
    <glyph glyph-name="uniE715" unicode="&#xe715;" 
d="M752 -43h-510q-25 0 -42 -19t-17 -47t17 -47.5t42 -19.5h510q25 0 42 19.5t17 47.5t-17 47t-42 19zM987 554q-6 6 -13 11q-28 19 -61 19q-44 0 -75.5 -31t-31.5 -76q0 -54 44 -86q-15 -18 -32.5 -36t-45 -37.5t-42.5 -15.5q-18 5 -31 39.5t-19.5 82.5t-9 74t-3.5 45
q39 6 64.5 36t25.5 69q0 45 -31 76t-75.5 31t-75.5 -31t-31 -76q0 -30 15 -55t41 -39q-7 -17 -15.5 -36t-22 -46t-28.5 -44t-26 -17q-12 0 -26.5 18t-28.5 46t-22 46t-14 35q24 14 38.5 38.5t14.5 53.5q0 45 -31 76t-75.5 31t-75.5 -31t-31 -76q0 -34 20 -62t52 -39
q10 -4 20 -5q-1 -9 -2.5 -23.5t-7.5 -53.5t-13.5 -69t-19.5 -56t-26 -29q-18 -5 -43.5 12t-40.5 33.5t-27 33.5q45 32 45 87q0 45 -31.5 76t-75.5 31q-13 0 -26 -3q-49 -5 -68 -53q-13 -24 -13 -51q0 -36 22 -64q12 -18 31 -28q25 -14 54 -14q7 0 16 1q4 -28 10.5 -65
t20.5 -103t34 -109.5t42 -44.5q24 -1 548 -1q14 0 28.5 17.5t26 45t22.5 61t19.5 67t14.5 61t9 44.5l3 17l1 9h11q28 0 53 14q33 11 43 46q11 22 11 46q0 46 -33 77z" />
    <glyph glyph-name="uniE716" unicode="&#xe716;" 
d="M321 -46l-321 321l119 119l261 -262l525 525l119 -119l-644 -643z" />
    <glyph glyph-name="uniE717" unicode="&#xe717;" 
d="M384 672q0 53 37.5 90.5t90.5 37.5t90.5 -37.5t37.5 -90.5t-37.5 -90.5t-90.5 -37.5t-90.5 37.5t-37.5 90.5zM656 560q0 53 37.5 90.5t90.5 37.5t90.5 -37.5t37.5 -90.5t-37.5 -90.5t-90.5 -37.5t-90.5 37.5t-37.5 90.5zM832 288q0 27 18.5 45.5t45.5 18.5t45.5 -18.5
t18.5 -45.5t-18.5 -45.5t-45.5 -18.5t-45.5 18.5t-18.5 45.5zM720 16.5q0 26.5 18.5 45t45 18.5t45.5 -18.5t19 -45t-19 -45.5t-45.5 -19t-45 19t-18.5 45.5zM448 -96q0 27 18.5 45.5t45.5 18.5t45.5 -18.5t18.5 -45.5t-18.5 -45.5t-45.5 -18.5t-45.5 18.5t-18.5 45.5z
M176 16q0 27 19 45.5t45.5 18.5t45 -18.5t18.5 -45.5q0 -26 -18.5 -45t-45 -19t-45.5 19t-19 45zM144 560q0 39 28.5 67.5t68 28.5t67.5 -28.5t28 -67.5q0 -40 -28 -68t-67.5 -28t-68 28t-28.5 68zM56 288q0 30 21 51t51 21t51 -21t21 -51t-21 -51t-51 -21t-51 21t-21 51z
" />
    <glyph glyph-name="uniE719" unicode="&#xe719;" 
d="M835 564l-60 63l-263 -275l-263 275l-60 -63l262 -276l-262 -276l60 -63l263 275l263 -275l60 63l-262 276z" />
  </font>
</defs>
</svg>
